<svg xmlns="http://www.w3.org/2000/svg" width="2969" height="627" xmlns:v="https://vecta.io/nano"><path d="M211.094 67.823l5.628-.031c18.597-.127 35.402.77 50.278 13.208l2.625 1.875c6.747 6.037 10.771 14.157 14.938 22.063l1.835 3.444 13.851 26.507 12.094 22.594 11.135 20.652 15.21 27.677c4.415 7.74 8.684 15.541 12.813 23.438l1.456 2.777c8.661 16.702 14.886 32.665 9.544 51.598-1.684 4.551-3.672 8.878-5.875 13.195l-2.15 4.261-1.193 2.364-5.676 11.443-6.451 13.022-3.31 6.701c-19.975 40.553-19.975 40.553-42.728 49.525-7.521 2.358-14.967 3.013-22.806 2.977h-2.545l-8.262-.016-5.754-.004-15.096-.025-15.424-.02L195 387c1.319-4.048 2.776-7.799 4.688-11.605l1.6-3.197 1.712-3.385 1.784-3.547 11.064-21.39 8.245-15.809 1.121-2.175 5.782-11.332c3.732-7.365 7.556-14.609 11.781-21.704 7.963-11.951 7.963-11.951 9.824-25.328-1.432-3.533-3.65-6.373-6.012-9.337-3.206-4.417-5.412-9.443-7.84-14.315-4.619-8.924-9.387-17.761-14.229-26.565L213.5 196.5l-14.051-26.332L189 150.5 177 128l-13.476-25.351c-4.142-7.977-8.428-15.87-12.78-23.733l-1.443-2.619-1.276-2.302C147 72 147 72 146 69l65.094-1.177zm-67.016 180.884l6.069.013 15.861.074 16.23.06L214 249c-1.319 4.048-2.776 7.799-4.687 11.605l-1.6 3.197-1.712 3.385-1.784 3.547-11.064 21.39-15.163 29.292-11.52 22.115-3.15 5.953-2.012 3.745-2.756 5.169-1.573 2.927c-1.372 3.753-.806 5.809.79 9.405 1.004 2.084 2.061 4.134 3.134 6.183l1.191 2.311 3.844 7.4 2.646 5.111 6.346 12.209 2.707 5.199 11.662 21.977L193 438l.946 1.758 19.839 38.081 1.117 2.181 1.095 2.138 10.651 20.39L235 518.5l11.188 21.375 1.212 2.304 6.221 11.743 1.275 2.395 2.414 4.519C260 565.889 260 565.889 260 567l-35.261.207-16.377.095-15.834.078-6.011.043c-20.052.209-34.485-3.191-49.999-16.591-6.696-7.527-11.178-16.717-15.707-25.645l-12.875-24.312L96 478.5l-16.457-30.68-9.599-17.687-8.479-15.633-1.758-3.235-3.306-6.073C47.283 388.403 40.902 373.674 45 354.063c1.345-4.514 3.138-8.544 5.281-12.734l2.164-4.269 1.222-2.41 6.035-12.178 6.1-12.336 4.497-9.113 5.293-10.698 1.589-3.255c8.077-16.159 18.667-29.595 36.091-35.89 10.168-2.955 20.32-2.557 30.805-2.472z" fill="#be0033"/><path d="M76.796 7.866l2.856-.014 3.112.001 3.326-.011 11.056-.019 7.919-.02 23.781-.039 11.211-.015 37.291-.039 9.672-.006 2.428-.001 38.908-.066 39.986-.054 22.434-.036 19.112-.02 9.738-.017C344.498 7.385 344.498 7.385 355 12l2.673 1.082C377.542 21.454 390.71 42.069 399 61c4.824 11.977 8.216 24.213 10 37l.523 3.688c.793 7.286.622 14.62.617 21.938l.009 5.091.011 13.95.016 15.062.024 32.921.012 20.576.026 57.022v3.684l.001 3.693.001 7.408.001 3.711.045 59.485.037 61.144.025 34.301.012 29.219.011 14.887c.103 38.194.103 38.194-3.371 54.219l-.685 3.249a107.35 107.35 0 0 1-1.878 7.189l-.755 2.578C399.057 567.983 392.214 582.071 382 594l-1.953 2.438c-10.081 12.13-24.923 21.25-40.811 22.839-2.911.109-5.808.129-8.722.111l-3.342.016h-11l-7.922.021-19.233.013a8691.27 8691.27 0 0 0-15.644.003l-2.255.002-4.536.005c-14.158.014-28.315.008-42.472-.003-12.93-.01-25.86.003-38.79.027l-39.905.027c-7.458-.003-14.916-.001-22.374.016a3762.64 3762.64 0 0 1-19.046-.002 1447.32 1447.32 0 0 0-9.702.005c-24.844.094-24.844.094-35.293-4.517l-2.736-1.145C40.374 606.922 29.251 592.71 21 578l-1.844-3.273C11.549 560.412 7.441 544.955 5 529l-.398-2.359c-.533-3.719-.643-7.431-.656-11.184l-.009-2.493L4 502c4.349-2.174 4.349-2.174 7.117-1.433C13 502 13 502 13.65 504.664l.221 3.391.292 3.772.134 2.002C16.436 544.869 25.642 575.257 49 597c11.671 9.027 23.083 12.153 37.587 12.14l3.232.009 10.722.012 7.688.015 20.889.024 13.055.012 36.179.026h2.337l2.343.001 4.699.001 2.355.001 37.746.045 38.796.037 21.765.025 20.482.01 7.503.013 10.273-.004 2.971.024c16.158-.114 29.091-6.112 40.527-17.353 24.03-24.866 30.021-61.339 29.985-94.464l.007-4.952.005-13.537.01-14.628.012-28.635.006-23.29.013-66.103v-3.596-3.601l.023-57.743.02-59.361.013-33.298.004-28.356.005-14.449-.002-13.263.006-4.762c.05-14.999-.92-29.967-4.88-44.499l-.782-2.913c-6.108-21.773-17.706-44.374-37.82-56.188-7.405-3.734-15.089-6.517-23.447-6.53l-2.773-.012-3.02.003-3.229-.009-10.732-.012-7.688-.015-20.902-.024-13.062-.012-36.192-.026h-2.339l-2.344-.001-4.703-.001-2.356-.001-37.765-.045-38.81-.037-21.775-.025-20.494-.01a1878.51 1878.51 0 0 1-7.507-.013 1467.76 1467.76 0 0 0-10.28.004l-2.973-.024c-16.16.114-29.093 6.111-40.531 17.353-23.892 24.723-29.809 60.83-30.168 93.766l-.063 4.8-.153 12.537-.161 12.831L13 184c-2.25 1.125-2.25 1.125-5 2-2.312-.875-2.312-.875-4-2l-.155-29.082-.071-13.511c-.315-42.292 3.966-84.161 34.8-116.071 10.365-9.73 23.649-17.438 38.221-17.47zM900 154l71.25-.187 22.45-.083 13.348-.016 8.878-.03 11.363-.022 6.087-.034c13.739.046 24.429 2.491 34.499 12.123 5.741 8.781 6.31 19.395 6.375 29.625l.063 2.422c.053 8.171-1.785 15.563-7.418 21.695-3.518 2.8-7.649 4.157-11.895 5.508l3.289 1.539 4.336 2.086 2.16 1.004c5.742 2.792 10.53 5.641 13.238 11.635 2.382 7.448 2.406 15.008 2.313 22.744l-.014 6.364c-.024 12.481-1.212 21.974-9.955 31.387-12.264 11.351-29.43 11.4-45.149 11.356h-4.178a5649.75 5649.75 0 0 1-11.118-.013l-10.46-.007-30.525-.032L900 313V154zm21 18v47l44.907.155 20.853.071 20.132.058 7.673.033 10.764.023 3.189.033c7.029-.029 13.812-.688 19.638-4.951 6.325-7.87 5.276-17.524 4.594-27.172-.588-4.333-1.663-7.012-4.75-10.25-8.958-4.869-17.943-5.149-27.892-5.114h-3.254l-10.599.016-7.369.004-19.358.025-19.768.02L921 172zm0 65v58l43.019.151 23.088.076 20.249.058 7.707.033 10.834.023 3.185.033c9.624-.04 19.326-.978 26.613-7.776 6.408-7.847 4.766-20.672 4.031-30.113-.805-6.653-1.369-11.22-6.727-15.484-9.829-4.745-19.573-5.151-30.281-5.114h-3.343l-10.875.016-7.566.004-17.838.021-25.889.026L921 237z" fill="#fff"/><path d="M146 69h44c9 16.292 17.587 32.76 26.079 49.32l10.534 20.157L235 154.5l11 21 12.546 23.966 9.267 17.659 8.898 17.047.991 1.918 4.858 9.422 1.827 3.542 1.783 3.483c1.262 2.386 2.544 4.706 3.915 7.025l1.998 3.444 1.839 3.059c1.407 3.827.751 5.271-.921 8.933a178.9 178.9 0 0 1-3.055 6.121l-.914 1.76-2.906 5.557-1.836 3.525-7.622 14.583-21.497 41.611-4.698 9.205L236 386h15v1h-56c1.402-4.206 2.731-7.709 4.688-11.605l1.6-3.197 1.712-3.385 1.784-3.547 11.064-21.39 8.245-15.809 1.121-2.175 5.782-11.332c3.732-7.365 7.556-14.609 11.781-21.704 7.963-11.951 7.963-11.951 9.824-25.328-1.432-3.533-3.65-6.373-6.012-9.337-3.206-4.417-5.412-9.443-7.84-14.315-4.619-8.924-9.387-17.761-14.229-26.565L213.5 196.5l-14.051-26.332L189 150.5 177 128l-13.476-25.351c-4.142-7.977-8.428-15.87-12.78-23.733l-1.443-2.619-1.276-2.302C147 72 147 72 146 69zm-1.75 179.813l5.762.041L164 249c-2.532 2.532-4.484 2.78-7.937 3.688-15.414 4.57-25.445 14.571-33.062 28.313-3.957 7.564-7.703 15.234-11.467 22.896-2.497 5.068-5.116 10.062-7.783 15.042-3.521 6.627-6.912 13.31-10.187 20.063l-1.253 2.535c-7.435 15.524-8.061 29.927-2.497 46.153 3.471 8.751 8.403 16.761 13.098 24.898 2.797 4.859 5.337 9.769 7.777 14.816 1.446 2.862 3.045 5.594 4.688 8.348 2.64 4.452 5.036 8.98 7.313 13.625 3.156 6.423 6.495 12.726 9.938 19l1.543 2.813 3.199 5.829 8.258 15.233 1.728 3.197 9.067 17.121 4.781 9.174 2.304 4.46C172.497 543.729 182.876 557.239 202 564c5.269 1.259 10.602 1.713 16 2v1l-20.593.22-6.988.082c-21.725.317-37.008-1.881-53.899-16.47-6.696-7.527-11.178-16.717-15.707-25.645l-12.875-24.312L96 478.5l-16.457-30.68-9.599-17.687-8.479-15.633-1.758-3.235-3.306-6.073C47.283 388.403 40.902 373.674 45 354.063c1.345-4.514 3.138-8.544 5.281-12.734l2.164-4.269 1.222-2.41 6.035-12.178 6.1-12.336 4.497-9.113 5.293-10.698 1.589-3.255c8.173-16.352 18.733-29.414 36.202-35.963 10.081-3.044 20.452-2.437 30.866-2.294z" fill="#d5d6d7"/><path d="M1554.559 153.823l2.793-.02 9.086-.041 3.16-.012 16.57-.045 16.991-.085 13.173-.038 6.257-.035c15.51-.13 31.99-.223 44.411 10.453l1.953 1.625c6.512 5.91 9.899 13.733 10.363 22.484l.115 2.062.131 2.579.438 8.25h-21l-1.125-8.062c-1.328-8.203-1.328-8.203-6.148-14.781-8.036-5.382-17.85-5.307-27.209-5.302l-2.408-.01-7.793-.013-5.472-.01-11.435-.007a4172.25 4172.25 0 0 1-14.588-.031l-11.291-.013-5.376-.013c-19.891-.314-19.891-.314-36.528 9.555-4.938 8.166-4.969 19.59-3 28.75 2.726 5.824 7.285 8.211 13.055 10.359 6.53 1.627 13.131 1.728 19.819 1.736l2.773.015 5.925.026 9.414.053 26.757.149 16.406.101 6.212.026c16.844.029 34.275.096 47.39 12.222 8.641 9.373 10.156 22.161 9.809 34.559-.871 12.776-2.3 24.174-12.199 33.164-14.597 11.235-34.209 9.971-51.656 9.891a7542.06 7542.06 0 0 0-6.773.002l-14.109-.029-18.001-.016a4930.22 4930.22 0 0 1-13.955-.013l-6.635-.003c-37.326.005-37.326.005-49.394-11.592-9.512-11.14-8.699-24.889-8.461-38.711h21l.956 11.127c.593 5.916 1.881 12.221 6.646 16.217 9.948 5.736 23.87 3.819 35.019 3.824l4.775.01 9.972.007 10.091.021c34.406 2.542 34.406 2.542 65.201-7.624 4.932-5.344 4.545-11.557 4.59-18.395l.063-2.33c.047-6.913-1.132-12.525-6-17.732-6.634-4.256-13.494-4.418-21.146-4.396l-2.881-.016-6.161-.018-9.794-.041-27.837-.111-17.067-.085-6.458-.018c-38.129-.002-38.129-.002-51.967-12.816-8.113-9.021-9.386-20.273-9.312-32l.013-2.772c.158-9.495 1.168-18.234 7.3-25.853l1.625-2.5c10.989-11.568 27.786-13.629 42.934-13.677zM2335 154l67.625-.187 21.288-.083 12.685-.016 8.421-.03 10.791-.022 5.761-.034c14.437.051 29.624 2.597 40.491 12.873 10.398 11.585 9.607 30.82 8.938 45.5-.812 9.696-1.68 16.776-8.812 23.75-4.154 2.932-7.969 5.25-13.187 5.25v2l2.219.336c6.626 1.582 12.227 6.196 15.855 11.883 4.206 8.092 4.077 17.632 4.023 26.531l-.004 2.723-.031 8.527-.014 5.816L2511 313h-22l-.113-9.492-.149-9.185-.084-6.343-.142-9.16-.019-2.826c-.157-7.117-.809-14.823-5.555-20.431-7.865-4.183-15.661-5.007-24.446-4.995l-3.344-.031-10.843-.048-7.558-.054-17.796-.095-25.837-.154L2357 250v63h-22V154zm22 18v60l38.516.146 23.582.08 19.024.058 7.238.033 10.18.023 2.986.033c9.288-.041 18.827-1.136 26.071-7.385 4.934-6.995 4.865-14.237 4.777-22.488l.035-3.301c-.027-7.348-.59-13.275-4.996-19.406-11.831-10.616-29.525-8.188-44.309-8.086l-7.208.013-18.854.074-22.685.067L2357 172z" fill="#be0032"/><path d="M153 366c3.833 1.278 4.359 3.104 6.133 6.572l1.184 2.389 1.26 2.482 3.986 7.932 3.892 7.704 2.608 5.165c6.215 12.305 12.685 24.475 19.235 36.604l22.487 42.991 1.117 2.181 1.095 2.138 10.651 20.39L235 518.5l11.188 21.375 1.212 2.304 6.221 11.743 1.275 2.395 2.414 4.519C260 565.889 260 565.889 260 567l-17.065.11-5.783.041c-32.804.29-32.804.29-43.526-5.713l-1.996-1.063c-14.131-7.837-21.734-20.033-28.817-34.125-3.245-6.406-6.48-12.782-10.145-18.961C145.109 494.462 141.266 482.691 139 468l-.73-4.055c-5.352-33.982 1.415-66.754 14.73-97.945z" fill="#990029"/><path d="M190 68l18.085-.11 6.136-.041c19.477-.162 37.094.037 52.78 13.151l2.625 1.875c6.747 6.037 10.772 14.157 14.938 22.063l1.816 3.407 14.446 27.646 1.531 2.967 1.333 2.593c1.296 2.52 1.296 2.52 3.04 5.015C308 149 308 149 307.641 151.034L307 153c.204 2.186.204 2.186.742 4.449l.543 2.572.59 2.666c7.466 34.37 3.771 74.835-12.875 106.313h-2l-1.31-2.544-21.102-40.654L262 207.5l-10.875-20.75-11.937-22.875-1.8-3.472-8.751-16.914-17.318-32.513c-3.795-6.927-7.369-13.947-10.86-21.031-2.941-5.959-6.042-11.805-9.279-17.609C190 70 190 70 190 68z" fill="#9a0028"/><path d="M1295 154l67.063-.187 21.102-.083 12.587-.016 8.348-.03 10.704-.022 5.707-.034c14.734.052 30.137 2.425 41.49 12.623 7.174 7.909 8.139 18.308 8.203 28.555l.017 2.192.02 4.563.072 6.905c.074 10.172-.249 19.217-7.496 27.027-3.965 3.291-8.647 5.508-13.816 5.508v2l2.223.348c5.632 1.323 10.175 4.537 13.656 9.133 3.426 5.588 5.252 9.89 5.235 16.472v2.972l-.016 3.185-.004 3.279-.031 10.362-.014 7.027L1470 313h-21l-.113-9.273-.149-8.976-.084-6.197-.142-8.952-.019-2.76c-.169-7.506-1.107-14.829-5.867-20.841-7.325-5.581-15.859-5.156-24.679-5.205l-3.343-.03-10.908-.081-7.575-.063-17.881-.138-25.941-.205L1316 250v63h-21V154zm21 18v60l39.986.195 24.478.106 19.743.078 7.517.043 10.562.031 3.11.044c8.287-.047 15.937-1.672 22.603-6.81 5.535-7.438 5.463-14.086 5.375-23.125l.035-3.604c-.027-8.08-.254-14.731-6.16-20.771-8.775-5.906-16.903-6.337-27.121-6.301h-3.283l-10.713.016-7.44.004-19.56.025-23.481.022L1316 172z" fill="#fff"/><path d="M1715 154h154v18h-133v50h128v18h-128v55h134v18h-155V154z" fill="#be0032"/><path d="M1111 154h154v18h-133v50h127v18h-127v55h133v18h-154V154z" fill="#fff"/><path d="M1966.313 153.602l6.677-.009 13.918.016 17.71-.011h13.765l6.525-.007c34.955-.089 34.955-.089 49.405 10.721 9.421 9.421 10.691 20.763 10.756 33.557L2085 207h-19l-.516-4.094-.734-5.406-.332-2.687c-1.017-7.282-2.503-13.597-8.543-18.187-7.18-3.482-15.324-3.924-23.173-3.884l-2.636-.011c-2.842-.009-5.685-.003-8.527.004l-5.992-.006c-4.174-.003-8.348.001-12.522.011-5.321.011-10.642.005-15.963-.007a4099.61 4099.61 0 0 0-12.365 0 1916.82 1916.82 0 0 1-5.882-.005c-20.845-.398-20.845-.398-39.816 7.273-8.124 8.749-7.451 21.993-7.398 33.184l-.009 4.642.016 9.679-.011 12.307v9.572l-.007 4.534c-.123 16.823-.123 16.823 6.905 31.687 11.935 11.067 33.277 8.556 48.246 8.563l5.094.01 10.625.007 13.501.031 10.507.013 4.972.013c20.83.516 20.83.516 39.559-7.242 3.839-4.566 5.041-9.728 5.316-15.547l.115-2.308.131-2.896.438-9.25h21c.69 33.104.69 33.104-9.625 44.313-14.751 13.4-35.46 12.145-54.125 12.086l-6.812.009a3633.35 3633.35 0 0 1-14.2-.016c-6.025-.017-12.049-.007-18.073.011a3523.94 3523.94 0 0 1-14.043 0c-2.22-.002-4.439 0-6.659.007-38.2.095-38.2.095-52.717-13.546-9.371-10-11.633-24.078-12.301-37.316l-.127-2.493c-.433-9.294-.469-18.586-.448-27.889l-.006-8.778c-.02-43.57-.02-43.57 12.984-57.344 14.522-13.713 35.816-12.502 54.465-12.441z" fill="#be0032"/><path d="M538.849 153.725l3.099-.015 10.04-.011 7.049-.013 14.739-.002 18.791-.034 14.55-.012 6.923-.016c36.289-.14 36.289-.14 49.272 12.191 1.257 1.371 2.487 2.767 3.688 4.188l1.605 1.836c4.518 5.999 3.774 11.874 3.395 19.164h-19l-2-7c-4.171-5.943-9.609-9.066-16.634-10.56-4.236-.554-8.385-.595-12.653-.601l-2.777-.015-9.065-.027-3.144-.009-16.482-.029-16.938-.058-13.098-.025-6.239-.024c-19.875-.758-19.875-.758-37.611 6.84-8.266 9.168-7.672 21.859-7.66 33.398l-.013 4.655-.002 9.733-.034 12.378-.012 9.611-.016 4.559c-.16 16.867-.16 16.867 6.871 31.779 9.058 8.377 23.646 8.547 35.25 8.54l2.492.01 8.071.013 5.667.01 11.846.007 15.106.031 11.695.013 5.566.013c20.228.586 20.228.586 37.827-8.035 4.503-4.723 4.978-6.134 5.988-13.207h20c.53 10.806.031 17.675-6.762 26.215-8.636 9.407-20.298 13.124-32.824 13.957-7.375.287-14.754.249-22.133.226l-7.171.009a4039.82 4039.82 0 0 1-14.967-.016 3463.74 3463.74 0 0 0-19.083.011c-4.93.011-9.859.007-14.789 0a1826.75 1826.75 0 0 0-7.032.007c-18.686.044-37.035.04-51.493-13.546-9.39-10.02-11.823-24.162-11.923-37.472l-.02-2.201-.041-7.155-.012-2.494-.045-13.088-.085-13.383-.038-10.407-.035-4.926c-.168-15.63 1.253-30.609 12.196-42.656 10.723-10.434 25.776-12.394 40.107-12.357z" fill="#fff"/><path d="M2119 154h21l.025 4.609.263 43.036.134 22.124.121 19.292.061 10.207.078 11.418.007 3.387c.012 11.098.012 11.098 4.562 20.863 10.548 7.911 28.237 5.226 40.863 5.23l5.827.01 12.166.007 15.471.031 12.023.013 5.698.013c21.262.854 21.262.854 40.452-6.555 5.454-7.363 4.409-18.725 4.455-27.428l.03-3.491.081-11.362.063-7.902.138-18.635.16-21.229L2283 154h21l.104 49.992.047 23.214.037 20.242.023 10.71.016 11.978.022 3.557c-.027 10.976-1.4 19.924-9.003 28.22-14.491 13.759-36.254 11.399-54.742 11.387l-7.444.013-15.55.002c-6.611-.006-13.222.011-19.833.034l-15.358.012-7.309.016c-34.643.126-34.643.126-46.748-10.972-6.632-6.977-9.391-16.398-9.382-25.867l-.004-3.285.011-3.572v-3.785l.013-10.251.008-10.722.021-20.293.022-23.108L2119 154z" fill="#bf0032"/><path d="M680 154c9.492-2.583 19.686-3.744 29 0 13.56 7.972 24.347 21.485 34.904 32.913l12.274 12.849L780 225c3.914-1.813 6.613-4.339 9.613-7.383l1.614-1.615 3.371-3.394 5.095-5.115c5.009-5.026 9.896-10.079 14.507-15.476 4.504-5.045 9.442-9.705 14.257-14.453 6.861-6.763 6.861-6.763 13.355-13.876l1.675-1.896c1.528-1.748 1.528-1.748 2.747-3.603 2.392-3.13 3.988-4.076 7.952-4.653 3.909-.127 7.783-.06 11.688.089l4.109.082L880 154c-5.303 7.68-11.803 13.997-18.437 20.5l-6.621 6.531-1.607 1.59c-3.371 3.358-6.541 6.822-9.624 10.443-4.299 4.864-9.059 9.318-13.683 13.869-3.627 3.592-7.191 7.18-10.516 11.055-4.141 4.825-8.67 9.241-13.199 13.699l-5.012 4.949-2.214 2.178c-4.476 4.685-6.583 7.227-6.633 13.903l-.031 1.982-.032 6.444-.05 4.485-.079 11.772-.102 12.026L792 313h-22l.051-5.992.024-19.697.031-11.931v-11.535l.031-4.38c.12-7.157.018-13.046-4.928-18.661A238.28 238.28 0 0 0 760 236l-4.336-4.4-6.403-6.414-5.25-5.226-11.137-11.085-12.943-12.888-5.136-5.104c-4.959-4.935-9.817-9.902-14.363-15.226-1.985-2.297-4.11-4.43-6.272-6.559l-2.529-2.506-2.568-2.529-5.152-5.09-2.277-2.242C680 155 680 155 680 154z" fill="#fff"/><path d="M2766 154c9.492-2.583 19.686-3.744 29 0 13.56 7.972 24.347 21.485 34.904 32.913l12.274 12.849L2866 225c2.766-1.335 4.821-2.572 6.988-4.758l1.643-1.648 1.682-1.719 1.646-1.648c2.861-2.891 5.597-5.846 8.24-8.937 5.271-6.087 11.102-11.647 16.831-17.298 9.808-9.66 9.808-9.66 18.646-20.2 10.438-13.723 10.438-13.723 18.847-15.561 8.194-.704 16.323-.186 24.478.77-1.847 4.027-4.525 6.716-7.687 9.75-3.353 3.238-6.577 6.508-9.613 10.047-4.911 5.686-10.32 10.87-15.672 16.137-3.631 3.596-7.198 7.188-10.527 11.066-4.831 5.628-10.19 10.734-15.473 15.934-4.168 4.127-8.21 8.242-11.878 12.824-1.855 1.936-3.449 3.17-5.646 4.646-5.632 4.104-9.72 8.076-11.277 15.073-1.083 9.492-.89 19.008-.652 28.544l.097 11.847L2877 313h-21l.241-5.817.455-19.302.315-11.671c1.239-20.602 1.239-20.602-7.915-38.278-3.905-4.001-8.218-7.488-12.627-10.912-2.885-2.36-5.157-4.934-7.535-7.789-3.905-4.506-8.231-8.634-12.461-12.833l-5.275-5.251L2800 190l-12.991-12.935-5.163-5.131c-11.839-11.783-11.839-11.783-15.847-16.934v-1z" fill="#bf0032"/><path d="M611 359h18l23.567 52.599L658 424l1.146 2.612 3.342 7.583 1.028 2.341c1.355 3.477 1.355 3.477 3.484 6.464l.909-2.436 8.559-22.942 4.398-11.789 4.26-11.418 1.61-4.314.773-2.072.763-2.046 2.225-5.955 3.179-8.56 1.64-4.418.771-2.098c1.8-4.838 1.8-4.838 2.913-5.951l5.348-.098 3.271.01 3.443.025 3.455.014L723 359l.685 1.855 26.002 69.958 1.327 3.526 1.184 3.118.995 2.624c.652 1.891.652 1.891 1.806 2.919l1.351-3.081L792 359h17c-.698 3.49-1.164 5.709-2.572 8.772l-.978 2.15-1.071 2.311-1.126 2.468-2.421 5.285-6.464 14.161-1.344 2.951-16.059 36.395c-3.759 8.64-7.653 17.127-11.965 25.507h-22l-4.472-11.679-1.681-4.392-11.905-31.284-2.602-6.87-3.883-10.266-3.659-9.669-1.119-2.972-1.027-2.704-.897-2.374c-.617-1.778-.617-1.778-1.754-2.79l-.589 1.573L678 459h-22a633.78 633.78 0 0 1-15.375-32.5l-4.16-9.422-1.082-2.451-8.316-18.58-1.238-2.741-4.823-10.663-3.337-7.378-.992-2.18-.937-2.077-.803-1.77c-1.411-3.373-2.653-6.815-3.936-10.238zm-79.34-1.203l3.703-.017 7.749-.02 11.738-.072 7.561-.016 3.493-.037c12.097.032 25.246 1.405 34.648 9.741 9.303 10.099 7.592 25.11 7.547 37.816l-.004 4.67-.025 12.206-.02 12.489L608 459h-16l-1-9-2.125 2.313c-8.734 8.164-20.772 7.996-32.121 7.953l-3.431.006a1740.44 1740.44 0 0 1-7.137-.011 1664.79 1664.79 0 0 0-10.828.013l-6.979-.008-3.221.012c-10.809-.067-22.813-.397-31.131-8.106-6.638-7.142-7.372-13.512-7.34-22.984l-.049-2.869c-.005-6.721.387-13.867 4.96-19.173 12.194-11.666 34.067-9.475 49.714-9.406l8.647-.013c28.226-.023 28.226-.023 38.041 6.273 1.041 1.301 2.051 2.63 3 4 .975-15.385.975-15.385-4.062-29.437-9.779-8.531-25.185-6.749-37.359-6.748l-7.128-.039c-16.511-.527-16.511-.527-31.451 5.225-2.227 4.009-2.32 7.241-3 12h-17c.405-9.728.782-16.581 7.625-23.75 9.829-7.366 21.31-7.41 33.035-7.453zM504 420c-1.969 5.908-1.77 12.603.125 18.5 3.472 4.629 7.274 6.605 12.875 7.5 36.663 4.554 36.663 4.554 70.563-5.375 4.161-4.481 4.921-8.364 4.742-14.348-.504-3.764-1.713-6.49-4.305-9.277-7.766-5.436-16.411-5.167-25.539-5.203l-3.386-.017-7.086-.02-10.744-.072-6.91-.016-3.202-.037c-9.833.029-20.149.814-27.134 8.366zm350.211-62.398l3.67-.009 7.629.016 11.545-.019c34.465-.031 34.465-.031 45.945 9.41 5.684 5.738 7.216 12.963 7.249 20.882l-.022 2.095.001 2.279-.033 7.369-.009 5.145-.049 13.474-.04 13.776L930 459h-16l-1-8-1.285 1.242c-9.131 8.388-20.631 7.913-32.414 7.926l-3.37.01-7.037.007-10.657.039-6.873.006-3.167.022c-12.429-.038-24.566-.73-33.852-9.885-6.852-8.565-6.162-20.646-5.066-30.984 1.098-6.042 3.434-11.963 8.512-15.699 13.56-7.32 30.756-5.87 45.664-5.869l8.53-.039c30.913-.098 30.913-.098 40.018 7.225l2 3-.312-10-.068-2.832c-.266-6.921-.922-13.239-5.807-18.543-10.269-5.933-23.675-4.811-35.158-4.81l-7.154-.039c-16.517-.498-16.517-.498-31.5 5.225-2.782 3.756-2.376 7.011-3 12h-17c-.348-8.235-.095-15.236 5.313-21.812L822 365l2.5-2.125c9.149-4.901 19.532-5.328 29.711-5.273zm-25.336 59.461c-3.517 5.51-4.429 11.322-3.312 17.75 1.184 4.214 2.817 6.59 6.438 9.188 19.191 6.979 55.186 6.822 74-1 4.003-1.965 6.147-3.658 7.938-7.687 1.414-4.581 1.548-8.732.063-13.312-2.208-3.663-4.712-6.273-8.437-8.375-7.056-1.721-13.969-1.799-21.199-1.828l-3.381-.017-7.068-.02-10.717-.072-6.896-.016-3.193-.037c-8.355.025-17.116.731-24.233 5.428z" fill="#fff"/><path d="M2583 154h178v18h-78v141h-21V172h-79v-18z" fill="#be0032"/><path d="M1123.016 357.684l9.833-.046c33.34-.101 33.34-.101 45.396 10.299C1190.315 380.338 1189 395.308 1189 412h-109c.806 15.715.806 15.715 8.063 28.313 8.836 5.076 18.97 5.416 28.938 5.688l2.303.066c24.859 1.419 24.859 1.419 47.697-6.066 3.011-3.513 4.292-7.731 6-12h16c-.506 9.106-1.892 15.375-8.687 21.75-13.897 11.118-33.621 10.763-50.646 10.641-2.665-.016-5.329 0-7.994.019-16.178.02-34.434.008-47.484-10.723-12.522-15.385-12.57-35.733-10.879-54.746 1.368-11.053 4.421-21.874 13.379-29.129 13.22-9.325 30.921-8.159 46.329-8.128zm-37.829 22.066c-4.582 6.807-5.187 10.782-5.187 19.25h92c0-9.983-.66-15.164-7.187-22.437-11.125-6.18-23.947-5.749-36.304-5.748l-6.72-.039c-19.851-.285-19.851-.285-36.602 8.975zm315.829-22.066l9.833-.046c16.115-.049 32.87-.091 45.963 10.674C1468.009 382.068 1467 393.433 1467 412h-109c.557 15.214.557 15.214 8.063 27.188 14.465 11.488 43.111 7.587 60.594 6.219 7.229-.878 14.93-2.257 20.344-7.406 1.651-3.286 2.804-6.504 4-10h16c-.526 9.475-2.127 15.501-9 22.25-13.315 11.06-33.612 10.106-50.032 10.066-2.701-.003-5.4.02-8.101.046-35.094.128-35.094.128-47.098-10.299-12.284-12.53-11.814-30.805-11.763-47.263.316-12.793 2.428-26.25 11.845-35.647 13.257-10.748 32.099-9.5 48.165-9.468zm-38.204 22.441c-3.796 6.021-4.812 11.814-4.812 18.875h93c-1.02-12.795-1.02-12.795-8.25-22.312-9.996-6.583-24.431-6.178-36.032-6.079a419.31 419.31 0 0 1-6.652-.019c-12.978-.022-27.438-.001-37.254 9.535zM1731 365c4.498 4.268 6.863 8.575 7.113 14.824.01 2.726-.047 5.451-.113 8.176h-16l-.625-4.75c-.757-3.597-1.14-4.996-3.687-7.75-10.791-4.389-22.904-3.815-34.361-3.761a904.01 904.01 0 0 1-8.068-.013c-18.782-.432-18.782-.432-36.258 5.273-3.486 3.835-3.324 7.66-3.301 12.598.344 2.75.622 4.178 2.301 6.402 4.976 2.53 9.229 3.494 14.82 3.66l2.319.099c12.376.483 24.771.575 37.154.718l10.011.144 3.022.025c11.764.204 23.497 1.018 32.111 9.853 5.809 9.294 5.587 20.731 3.246 31.145-1.673 5.764-4.505 10-9.574 13.293-11.083 5.582-24.157 5.219-36.246 5.23l-3.75.01-7.824.007-11.842.039c-38.088.088-38.088.088-48.318-8.861-7.35-7.844-6.309-17.204-6.129-27.363h16l.313 5.125c.447 4.58.796 8.144 3.688 11.875 7.44 4.165 16.133 4.217 24.438 4.563l2.98.126c7.871.315 15.704.488 23.582.311l2.612-.054 8.701-.258 2.75-.068c6.539-.264 14.408-.715 19.657-5.035 3.477-4.304 2.675-10.375 2.28-15.585-.842-3.523-.842-3.523-3-6-5.331-2.8-9.777-3.503-15.742-3.66l-2.596-.099c-13.113-.46-26.242-.573-39.362-.718l-10.433-.144-3.167-.025c-9.129-.153-17.775-.588-25.009-6.58-6.19-6.49-6.96-14.583-6.844-23.184.474-8.05 2.54-13.751 8.152-19.715 21.323-13.327 84.386-15.226 105 .125zm-136 1c4.976 5.107 6.107 9.895 6.125 16.875L1601 388h-16l-.625-4.75c-.757-3.597-1.14-4.996-3.687-7.75-10.791-4.389-22.904-3.815-34.361-3.761a904.01 904.01 0 0 1-8.068-.013c-18.782-.432-18.782-.432-36.258 5.273-3.486 3.835-3.324 7.66-3.301 12.598.344 2.75.622 4.178 2.301 6.402 4.976 2.53 9.229 3.494 14.82 3.66l2.319.099c12.376.483 24.771.575 37.154.718l10.011.144 3.022.025c11.764.204 23.497 1.018 32.111 9.853 5.602 8.964 5.557 21.041 3.281 31.133-1.753 5.774-4.498 9.985-9.609 13.305-11.083 5.582-24.157 5.219-36.246 5.23l-3.75.01-7.824.007-11.842.039c-38.088.088-38.088.088-48.318-8.861-7.35-7.844-6.309-17.204-6.129-27.363h16l.488 8.887c.562 3.421 1.411 5.369 3.512 8.113 1.789 1.179 1.789 1.179 3.813 1.75l1.957.672c6.172 1.6 12.328 1.877 18.668 2.141l2.98.126c7.871.315 15.704.489 23.582.311l2.58-.054c16.105.168 16.105.168 31.42-3.946 2.049-2.472 2.049-2.472 2-6l.191-2.625c.229-5.426.258-9.924-3.191-14.375-5.331-2.8-9.777-3.503-15.742-3.66l-2.596-.099c-13.113-.46-26.242-.573-39.362-.718l-10.433-.144-3.167-.025c-9.131-.153-17.767-.592-25.009-6.576-6.298-6.618-7.01-14.898-6.902-23.645.48-7.13 2.349-13.423 7.359-18.668 19.375-15.329 88.202-15.335 106.852.535z" fill="#fff"/><path d="M153 366c3.833 1.278 4.359 3.104 6.133 6.572l1.184 2.389 1.26 2.482 3.986 7.932 3.892 7.704 2.608 5.165c6.215 12.305 12.685 24.475 19.235 36.604l22.487 42.991 1.117 2.181 1.095 2.138 10.651 20.39L235 518.5l11.25 21.5 1.218 2.322 5.966 11.119 1.153 2.111 2.166 3.906c.81 1.482 1.537 3.009 2.247 4.541l-1 2c-24.65-11.695-24.65-11.695-32-19l-2.043-2c-14.108-14.844-22.637-34.938-32.113-52.855l-4.344-8.207-1.092-2.065c-5.692-10.752-11.584-21.374-17.611-31.943-5.638-9.899-10.874-19.99-15.921-30.201-2.47-4.98-5.099-9.855-7.844-14.689C144 403 144 403 144 401h-2c.564-5.991 1.845-11.261 3.813-16.937l.809-2.382c1.851-5.37 3.913-10.559 6.378-15.68z" fill="#800425"/><path d="M192 71c25.313 7.569 39.393 24.64 51.625 47.063l4.693 8.776 5.291 9.892 7.59 14.168 10.988 20.477 1.753 3.259 8.11 14.932 2.949 5.371 1.44 2.622 8.349 15.742.969 1.878 4.699 9.165 1.707 3.328 1.514 2.972c1.234 2.449 1.234 2.449 3.322 4.356-.34 6.144-2.403 11.773-4.375 17.563l-.922 2.787c-1.6 4.756-3.31 9.238-5.703 13.65h-2l-1.31-2.544-21.102-40.654L262 207.5l-10.875-20.75-11.937-22.875-1.8-3.472-8.751-16.914-17.313-32.504c-3.826-6.981-7.437-14.054-10.939-21.202a205.92 205.92 0 0 0-7.451-13.843C192 74 192 74 192 71z" fill="#810626"/><path d="M1315.375 365.25c7.878 7.513 9.314 16.955 9.797 27.523.082 4.237.053 8.474.023 12.711l-.009 4.657-.049 12.132-.04 12.43L1325 459h-16l-.044-6.191-.192-20.332-.111-12.318-.117-11.904-.034-4.524c-.019-13.546-.019-13.546-5.565-25.605-14.222-10.288-39.954-7.196-56.402-4.82-7.668 1.508-16.032 3.59-20.68 10.363-3.301 5.47-3.977 9.543-4.061 15.845l-.03 1.952-.081 6.363-.063 4.422-.153 11.62-.161 11.865L1221 459h-16V359h16l1 13 3.438-4.25c8.006-8.978 19.115-10.777 30.68-11.59 45.589-1.88 45.589-1.88 59.258 9.09z" fill="#fff"/><path d="M2543 154h21v159h-21V154z" fill="#be0032"/><path d="M998.258 357.797l2.377-.017 4.967-.02 7.484-.072c12.139-.08 24.098.095 33.496 8.773 8.011 8.303 7.704 18.035 7.572 28.934L1054 402h-15l-.297-3.437c-.574-11.615-.574-11.615-5.703-21.562-12.179-7.978-31.554-6.26-45.312-3.812-7.076 1.649-11.952 4.077-17.062 9.188-3.217 5.197-3.876 10.553-3.944 16.57l-.03 1.983-.065 6.411-.059 4.476-.128 11.723-.141 11.986L966 459h-16V359h16l1 12 2.875-3.75c7.342-8.414 17.766-9.392 28.383-9.453zM8.5 206.75C11 207 11 207 13 209l.254 8.465.009 2.686-.005 8.964.011 6.405v17.435l.003 18.211-.011 30.587.004 35.408.005 30.352.003 18.149-.01 17.059.003 6.277-.011 8.537.014 2.537c-.039 5.7-.039 5.7-2.267 7.928-2.5.25-2.5.25-5 0-2.599-2.599-2.243-4.388-2.267-7.928l.014-2.537-.009-2.686.005-8.964-.011-6.405v-17.435l-.003-18.211.011-30.587-.004-35.408-.005-30.352-.003-18.149.01-17.059-.003-6.277.011-8.537-.014-2.537c.053-7.707.053-7.707 4.767-8.178zm1.125 248.563C12 456 12 456 13 457l.133 4.219.004 2.574-.012 2.707.012 2.707-.004 2.574-.003 2.377C13 476 13 476 12 477H5c-2.249-2.249-1.232-7.418-1.25-10.437l-.062-2.682-.016-2.564-.028-2.361L4 457c3-2 3-2 5.625-1.687z" fill="#fff"/><path d="M190 68h42v1h-38v2l-3 1-1-4z" fill="#bb013f"/></svg>